<svg width="116" height="20" viewBox="0 0 116 20" fill="none" xmlns="http://www.w3.org/2000/svg">
<path d="M53.4904 7.76275L57.9014 2.52906L59.4648 0.944247L61.1676 0.498221L61.2157 0.341637L61.235 0.185053L61.2494 0H60.9175L60.7347 0.0474496L54.9575 0L54.9768 0.0948992L54.9912 0.232503L55.0201 0.327402L55.0874 0.479241L56.8384 0.901542L56.9009 1.04864L56.8191 1.17675L56.8047 1.21945L54.5054 4.74021L52.817 6.96085L52.7256 6.83748L52.4562 6.5433L48.6994 1.00593L48.8148 0.863582L50.7389 0.55516L50.989 0.389087L51.0035 0.313167L51.0372 0.246738L51.0612 0L50.2242 0.0474496L42.6769 0.0332147L42.7298 0.232503L42.7442 0.389087L42.7875 0.450771L44.524 0.944247L44.7453 1.14354L50.7966 9.05813L50.8496 9.29063L50.7966 9.37129L45.5919 16.1234L43.9035 17.9027L42.1333 18.3962L42.1189 18.4531L42.0852 18.4864L41.9794 18.8138L42.0564 18.8375H42.2921L42.4797 18.7948L48.9062 18.8375L48.8918 18.6856L48.8773 18.5148L48.8581 18.3298L48.6368 18.3013L48.5599 18.2728L46.6502 17.9597L46.6742 17.8695L46.7175 17.7319L46.7319 17.656L49.546 12.949L51.5519 10.1115L51.7058 10.2444L55.0393 14.2728L58.6037 18.0735L60.8742 20L61.8747 19.6916L54.3322 9.09134L53.4904 7.76275Z" fill="#C4C4C4"/>
<path d="M88.9903 18.2871H88.8508L86.8017 17.9312L86.7199 17.8221V17.7651H86.6814L85.8877 16.0664L83.117 9.09134L80.3318 0.901542L80.5531 0.820878L82.3521 0.55516V0.374852V0.246738L82.3858 0.218268L82.4147 0L74.3045 0.0474496V0.55516H74.6316L76.3585 0.863582L76.3874 1.04864L70.7546 15.6963L69.6915 17.9312H69.5953L69.5327 17.9644L67.6086 18.2728L67.4547 18.4104L67.4066 18.5006V18.6429L67.3633 18.7616H74.5787L74.5354 18.5813L74.5018 18.3203L72.1543 17.9597V17.637L72.2794 16.9632L73.9823 10.4626H74.1073L78.5328 10.1542L80.2837 10.2159L80.3366 10.3677V10.4484L80.4184 10.5386L83.016 17.898L82.8572 17.9929L80.3078 18.3488L80.2164 18.8517L80.9187 18.809L89.226 18.8517L89.1106 18.3345L88.9903 18.2871ZM74.4921 9.21471L74.4152 9.15302L77.157 1.52788L77.2821 1.43772L79.9807 9.30961L74.4921 9.21471Z" fill="#C4C4C4"/>
<path d="M30.9206 17.9596L30.8725 17.3143L30.8244 2.03555L30.9831 0.910993L33.6913 0.526651L33.8019 0.389048L33.8164 0.246699L33.8885 0.0616455H24.648L24.6961 0.218229L24.7105 0.327363L24.7442 0.374813L24.8211 0.479202L27.5726 0.910993L27.7265 3.74848L27.6351 17.9596H27.3561L24.7105 18.3962L24.6961 18.5006L24.6624 18.5812L24.648 18.6998L24.7538 18.8137L24.9173 18.8374L25.5234 18.7947L33.9222 18.8374L33.7827 18.3297L30.9206 17.9596Z" fill="#C4C4C4"/>
<path d="M14.4212 2.14947L13.642 1.42349L12.4779 0.773428L10.6355 0.284698L7.35011 0L0.0144308 0.0806643L0 0.185053L0.0288617 0.327402V0.55516L0.153929 0.57414L2.79958 0.911032L2.90541 1.02017L2.92465 1.14354L2.95351 1.21945L3.03529 2.54804L2.98238 17.9597L1.76537 18.102L0.0625337 18.3962L0.0432925 18.5006L0.0144308 18.5813L0 18.6999L0.105826 18.8138L0.264566 18.8375L0.875471 18.7948L9.74082 18.8375L9.55322 18.3155L9.41372 18.2871L6.1764 17.9597L6.0802 14.5813L6.1764 0.839858H7.25872L9.05295 1.14354L9.97653 1.54686L11.0252 2.39146L11.5399 3.30249L11.8525 4.53618L11.7275 6.37722L11.2753 7.6204L10.4287 8.76394L9.10106 9.68921L7.73974 10.1684L7.61468 10.325L7.55214 10.7853L7.69645 10.8612L7.82152 10.847L10.0872 10.2017L11.9343 9.27639L13.1369 8.35113L14.2769 6.97509L14.8734 5.61803L15.0899 3.98102L14.9167 3.08422L14.4212 2.14947Z" fill="#C4C4C4"/>
<path d="M109.357 10.0784L108.746 8.85899L108.78 8.78308L108.939 8.72139L109.901 8.04286L111.103 6.88509L112.027 5.50905L112.484 4.17098L112.354 2.90407L111.979 2.14962L111.281 1.42365L110.218 0.821036L108.746 0.403479L104.778 0.0476074L96.7348 0.123527V0.232661L96.7637 0.37501V0.607512L99.6499 0.958639L99.7605 2.4106L99.7124 17.9598H99.4767L96.7829 18.3964V18.5008L96.7541 18.5814V18.7L96.831 18.8139L96.9705 18.8376L97.4516 18.7949L105.903 18.8376V18.5624L105.855 18.3347H105.764L102.945 17.9741L102.854 10.1971L104.869 10.0642L105.557 10.1401L106.591 11.3881L111.599 16.7261L114.365 19.2742L115.038 19.6301L116 19.4118L113.374 16.0903L109.357 10.0784ZM106.759 8.58379L105.244 9.10573L103.7 9.39992H102.805L102.897 0.858995L104.917 0.949149L106.841 1.48533L107.948 2.13539L108.698 2.92305L109.136 3.95271L109.198 5.11048L108.842 6.48652L108.073 7.59209L106.759 8.58379Z" fill="#C4C4C4"/>
</svg>
