<svg width="94" height="31" viewBox="0 0 94 31" fill="none" xmlns="http://www.w3.org/2000/svg">
<path d="M23.1109 10.9472H12.1432V14.2218H19.9213C19.5368 18.8114 15.7466 20.771 12.1542 20.771C11.0187 20.7755 9.89375 20.5526 8.84482 20.1153C7.7959 19.6779 6.84403 19.0349 6.04472 18.2237C5.24541 17.4125 4.61465 16.4494 4.18922 15.3904C3.76379 14.3315 3.5522 13.198 3.56679 12.056C3.54631 10.9086 3.7538 9.76872 4.17709 8.70311C4.60039 7.6375 5.23097 6.66764 6.03184 5.85041C6.83272 5.03317 7.78777 4.38503 8.84098 3.94398C9.89419 3.50293 11.0243 3.27785 12.1652 3.28196C14.3497 3.27729 16.4506 4.12652 18.0244 5.65043L20.3058 3.2746C20.3058 3.2746 17.3835 0 12.048 0C5.25498 0 0 5.7683 0 11.997C0.0338298 15.2249 1.33963 18.3073 3.63074 20.5676C5.92186 22.8279 9.01103 24.0815 12.2201 24.053C18.625 24.053 23.3087 19.6328 23.3087 13.1205C23.3228 12.3909 23.2565 11.6621 23.1109 10.9472Z" fill="#5C7FBF"/>
<path d="M32.0938 8.57879C31.0833 8.56063 30.0793 8.74573 29.1408 9.12322C28.2024 9.50071 27.3484 10.063 26.6289 10.777C25.9095 11.4911 25.3391 12.3425 24.9513 13.2813C24.5635 14.2202 24.3661 15.2274 24.3707 16.2441C24.3522 17.2752 24.5409 18.2995 24.9256 19.2555C25.3104 20.2115 25.8831 21.0795 26.6095 21.8073C27.3358 22.5352 28.2009 23.108 29.1528 23.4914C30.1046 23.8747 31.1237 24.0608 32.1488 24.0383C33.1588 24.0547 34.1619 23.8667 35.0983 23.4854C36.0347 23.1042 36.8853 22.5375 37.5996 21.819C38.3139 21.1005 38.8774 20.2448 39.2564 19.303C39.6354 18.3611 39.8223 17.3521 39.806 16.3362C39.806 11.2125 35.7778 8.57879 32.0938 8.57879ZM32.1414 11.614C34.3386 11.614 36.4516 13.4152 36.4516 16.3141C36.4516 19.154 34.3643 20.9957 32.1304 20.9957C29.6769 20.9957 27.736 19.0214 27.736 16.2846C27.736 13.6067 29.6476 11.6066 32.1304 11.6066L32.1414 11.614Z" fill="#D8282A"/>
<path d="M48.8987 8.57879C47.888 8.56064 46.8839 8.74571 45.9452 9.12316C45.0065 9.50061 44.1523 10.0628 43.4326 10.7768C42.7128 11.4908 42.1421 12.3422 41.7539 13.2811C41.3657 14.2199 41.1678 15.2273 41.1719 16.2441C41.1597 18.3034 41.9614 20.2832 43.4005 21.7481C44.8396 23.2129 46.7983 24.0426 48.8456 24.0548C50.893 24.0671 52.8613 23.2607 54.3176 21.8132C55.7738 20.3656 56.5988 18.3955 56.6109 16.3362C56.6109 11.2125 52.5827 8.57879 48.8987 8.57879ZM48.9427 11.614C51.1399 11.614 53.2529 13.4152 53.2529 16.3141C53.2529 19.154 51.1655 21.0031 48.9353 21.0031C46.4818 21.0031 44.5409 19.0288 44.5409 16.292C44.5409 13.6141 46.4525 11.614 48.9353 11.614H48.9427Z" fill="#F5C400"/>
<path d="M65.3814 8.58611C61.2507 8.58611 58.0025 12.2254 58.0025 16.3214C58.0025 20.9736 61.767 24.0566 65.3265 24.0566C67.5237 24.0566 68.6809 23.18 69.5415 22.1781V23.703C69.5415 26.3699 67.9338 27.9648 65.5133 27.9648C64.6588 27.9564 63.8267 27.6894 63.1252 27.1986C62.4237 26.7079 61.8854 26.0161 61.5803 25.2132L58.5921 26.4472C59.6394 28.6573 61.7487 31 65.5059 31C69.611 31 72.7421 28.3994 72.7421 22.9406V9.05022H69.5195V10.3615C68.9958 9.78454 68.355 9.32742 67.6404 9.02111C66.9259 8.71481 66.1543 8.56646 65.3778 8.58611H65.3814ZM65.6781 11.6176C67.7031 11.6176 69.7832 13.3562 69.7832 16.3251C69.7832 19.2939 67.7105 20.9957 65.6341 20.9957C63.4369 20.9957 61.3825 19.1982 61.3825 16.3398C61.3825 13.3709 63.5101 11.6029 65.6781 11.6029V11.6176Z" fill="#5C7FBF"/>
<path d="M87.0752 8.56775C83.1788 8.56775 79.905 11.684 79.905 16.303C79.905 21.1726 83.567 24.0604 87.4487 24.0604C90.7006 24.0604 92.6964 22.2702 93.8865 20.6679L91.2316 18.8888C90.8429 19.5421 90.29 20.0808 89.6284 20.4507C88.9669 20.8206 88.2201 21.0086 87.4633 20.9957C85.3028 20.9957 84.3104 19.806 83.6951 18.6531L94 14.3655L93.4654 13.1058C92.4693 10.6379 90.1476 8.57512 87.0752 8.57512V8.56775ZM87.207 11.5403C87.7881 11.5155 88.3642 11.6575 88.868 11.9497C89.3718 12.2419 89.7826 12.6722 90.0524 13.1905L83.1715 16.0857C82.8749 13.8461 84.9842 11.5403 87.1997 11.5403H87.207Z" fill="#D8282A"/>
<path d="M74.9905 23.5742H78.3669V0.799347H74.9796L74.9905 23.5742Z" fill="#46AD44"/>
</svg>
