<svg width="30" height="28" viewBox="0 0 30 28" fill="none" xmlns="http://www.w3.org/2000/svg">
<path d="M29.0268 27.8541C27.2421 27.8119 25.4999 27.8119 23.7152 27.8541C23.3327 27.8541 23.2477 27.7697 23.2477 27.39C23.2477 24.2681 23.2477 21.1041 23.2477 17.9822C23.2477 17.265 23.2052 16.5478 22.9928 15.8728C22.3554 13.6791 19.8057 12.8775 17.9785 14.3541C17.0012 15.1134 16.6187 16.1681 16.6187 17.4337C16.6187 20.3869 16.6187 23.34 16.6187 26.2931C16.6187 26.6728 16.5762 27.0525 16.6187 27.4744C16.6612 27.8119 16.4912 27.8962 16.1938 27.8541C14.3666 27.8541 12.5818 27.8541 10.7546 27.8541C10.4147 27.8541 10.3297 27.7697 10.3297 27.4322C10.3722 24.7744 10.3722 22.1166 10.3722 19.4166C10.3722 16.1259 10.3722 12.8353 10.3297 9.58687C10.3297 9.20718 10.4147 9.12281 10.7546 9.12281C12.5818 9.12281 14.3666 9.12281 16.1938 9.12281C16.5337 9.12281 16.6187 9.20718 16.6187 9.54468C16.6187 10.2197 16.6187 10.8947 16.6187 11.6962C16.7462 11.5697 16.7887 11.5275 16.8312 11.4853C18.4884 9.08062 20.8256 8.40562 23.5877 8.82749C26.7747 9.33374 28.8144 11.5275 29.3243 14.9025C29.4518 15.7041 29.4943 16.5056 29.4943 17.3072C29.4943 20.6822 29.4943 24.015 29.4943 27.39C29.4943 27.7275 29.4093 27.8541 29.0268 27.8541Z" fill="#5592EE"/>
<path d="M6.9302 18.4887C6.9302 21.4418 6.9302 24.3949 6.9302 27.348C6.9302 27.7277 6.84521 27.8543 6.46277 27.8543C4.67803 27.8121 2.8933 27.8543 1.10856 27.8543C0.768612 27.8543 0.683624 27.7699 0.683624 27.4324C0.683624 21.484 0.683624 15.4934 0.683624 9.54492C0.683624 9.24961 0.768612 9.12305 1.10856 9.12305C2.93579 9.12305 4.76302 9.12305 6.59025 9.12305C6.97269 9.12305 7.01518 9.24961 7.01518 9.58711C6.9302 12.5402 6.9302 15.4934 6.9302 18.4887Z" fill="#5592EE"/>
<path d="M7.22765 4.22911C6.80271 5.91661 5.06047 6.88692 3.06326 6.54942C0.938575 6.21192 -0.25125 4.14474 0.513637 2.11974C1.02356 0.854112 2.25588 0.0947371 3.82815 0.136925C6.2078 0.0947371 7.78007 1.99317 7.22765 4.22911Z" fill="#5592EE"/>
</svg>
