<svg width="40" height="26" viewBox="0 0 40 26" fill="none" xmlns="http://www.w3.org/2000/svg">
<path d="M32.0188 7.79321C33.1761 7.79321 34.3329 7.79321 35.4956 7.79321C35.5019 8.948 35.513 10.1086 35.5194 11.2628C36.682 11.2744 37.851 11.2802 39.0142 11.286C39.0142 12.4407 39.0142 13.5892 39.0142 14.744C37.8515 14.7498 36.6826 14.7556 35.5194 14.7614C35.5077 15.9219 35.5019 17.0762 35.4956 18.2368C34.3329 18.231 33.1692 18.2368 32.0124 18.2368C32.0013 17.0762 32.0013 15.9219 31.9891 14.7671C30.8265 14.755 29.6575 14.7498 28.4943 14.7435C28.4943 13.5887 28.4943 12.4402 28.4943 11.2854C29.6575 11.2796 30.8207 11.2739 31.9891 11.2623C31.9949 10.1086 32.0066 8.948 32.0188 7.79321Z" fill="#5592EE"/>
<path d="M0.494135 13.0154C0.254411 6.74922 5.7829 0.958456 12.101 0.883327C15.3211 0.610654 18.4539 1.85213 20.8909 3.87695C19.8912 4.96817 18.8741 6.04678 17.7877 7.05656C15.6423 5.76255 13.0593 4.7764 10.552 5.65222C6.5079 6.79545 4.05879 11.536 5.55535 15.4637C6.79472 19.5659 11.8205 21.8172 15.7593 20.0939C17.7988 19.3689 19.1435 17.5006 19.7335 15.4931C17.3961 15.4469 15.0581 15.4758 12.7206 15.4117C12.7148 14.031 12.709 12.6556 12.7148 11.2749C16.6129 11.2691 20.5167 11.2575 24.4206 11.2922C24.6603 14.6751 24.1576 18.2955 21.9424 21.0107C18.909 24.8864 13.3049 26.0239 8.74586 24.5034C3.90744 22.9257 0.388826 18.0864 0.494135 13.0154Z" fill="#5592EE"/>
</svg>
