<svg width="94" height="33" viewBox="0 0 94 33" fill="none" xmlns="http://www.w3.org/2000/svg">
<path d="M5.136 26.36C6.064 26.36 6.908 26.172 7.668 25.796C8.428 25.42 9.044 24.82 9.516 23.996C9.844 23.428 10.02 22.88 10.044 22.352C10.076 21.816 10.092 21.148 10.092 20.348V8.72H7.164V20.348C7.164 20.82 7.152 21.236 7.128 21.596C7.112 21.948 7.048 22.252 6.936 22.508C6.752 22.908 6.472 23.2 6.096 23.384C5.72 23.56 5.364 23.648 5.028 23.648C4.516 23.648 4.048 23.472 3.624 23.12C3.2 22.768 2.944 22.348 2.856 21.86L0 22.544C0.352 23.704 0.964 24.632 1.836 25.328C2.708 26.016 3.808 26.36 5.136 26.36ZM19.4274 26.36C20.7234 26.36 21.8554 26.072 22.8234 25.496C23.7914 24.912 24.5434 24.108 25.0794 23.084C25.6234 22.052 25.8954 20.864 25.8954 19.52C25.8954 18.184 25.6274 17.004 25.0914 15.98C24.5554 14.948 23.8034 14.14 22.8354 13.556C21.8674 12.972 20.7314 12.68 19.4274 12.68C18.1554 12.68 17.0354 12.968 16.0674 13.544C15.0994 14.12 14.3434 14.92 13.7994 15.944C13.2554 16.968 12.9834 18.16 12.9834 19.52C12.9834 20.856 13.2474 22.04 13.7754 23.072C14.3114 24.096 15.0634 24.9 16.0314 25.484C16.9994 26.068 18.1314 26.36 19.4274 26.36ZM19.4274 23.648C18.3154 23.648 17.4714 23.276 16.8954 22.532C16.3274 21.78 16.0434 20.776 16.0434 19.52C16.0434 18.296 16.3154 17.304 16.8594 16.544C17.4114 15.776 18.2674 15.392 19.4274 15.392C20.5634 15.392 21.4154 15.768 21.9834 16.52C22.5514 17.264 22.8354 18.264 22.8354 19.52C22.8354 20.736 22.5514 21.728 21.9834 22.496C21.4234 23.264 20.5714 23.648 19.4274 23.648ZM28.5154 26H31.0714V25.04C31.5354 25.456 32.0754 25.78 32.6914 26.012C33.3074 26.244 33.9994 26.36 34.7674 26.36C35.9674 26.36 37.0074 26.06 37.8874 25.46C38.7754 24.86 39.4634 24.044 39.9514 23.012C40.4394 21.98 40.6834 20.816 40.6834 19.52C40.6834 18.208 40.4354 17.036 39.9394 16.004C39.4514 14.972 38.7554 14.16 37.8514 13.568C36.9474 12.976 35.8834 12.68 34.6594 12.68C34.0114 12.68 33.4194 12.768 32.8834 12.944C32.3474 13.112 31.8634 13.356 31.4314 13.676V8.72H28.5154V26ZM34.3234 23.768C33.1634 23.768 32.3314 23.376 31.8274 22.592C31.3234 21.8 31.0714 20.776 31.0714 19.52C31.0714 18.256 31.3194 17.232 31.8154 16.448C32.3194 15.664 33.1234 15.272 34.2274 15.272C35.0034 15.272 35.6394 15.464 36.1354 15.848C36.6394 16.224 37.0114 16.736 37.2514 17.384C37.4994 18.024 37.6234 18.736 37.6234 19.52C37.6234 20.312 37.5034 21.028 37.2634 21.668C37.0314 22.308 36.6714 22.82 36.1834 23.204C35.6954 23.58 35.0754 23.768 34.3234 23.768ZM43.3044 26H45.8604V25.04C46.3244 25.456 46.8644 25.78 47.4804 26.012C48.0964 26.244 48.7884 26.36 49.5564 26.36C50.7564 26.36 51.7964 26.06 52.6764 25.46C53.5644 24.86 54.2524 24.044 54.7404 23.012C55.2284 21.98 55.4724 20.816 55.4724 19.52C55.4724 18.208 55.2244 17.036 54.7284 16.004C54.2404 14.972 53.5444 14.16 52.6404 13.568C51.7364 12.976 50.6724 12.68 49.4484 12.68C48.8004 12.68 48.2084 12.768 47.6724 12.944C47.1364 13.112 46.6524 13.356 46.2204 13.676V8.72H43.3044V26ZM49.1124 23.768C47.9524 23.768 47.1204 23.376 46.6164 22.592C46.1124 21.8 45.8604 20.776 45.8604 19.52C45.8604 18.256 46.1084 17.232 46.6044 16.448C47.1084 15.664 47.9124 15.272 49.0164 15.272C49.7924 15.272 50.4284 15.464 50.9244 15.848C51.4284 16.224 51.8004 16.736 52.0404 17.384C52.2884 18.024 52.4124 18.736 52.4124 19.52C52.4124 20.312 52.2924 21.028 52.0524 21.668C51.8204 22.308 51.4604 22.82 50.9724 23.204C50.4844 23.58 49.8644 23.768 49.1124 23.768ZM64.0095 26.36C65.2575 26.36 66.3975 26.04 67.4295 25.4C68.4695 24.752 69.2375 23.84 69.7335 22.664L66.8775 21.8C66.3015 23.032 65.2895 23.648 63.8415 23.648C62.8575 23.648 62.0815 23.364 61.5135 22.796C60.9455 22.22 60.6055 21.396 60.4935 20.324H69.8775C69.9895 18.764 69.8175 17.412 69.3615 16.268C68.9055 15.124 68.2055 14.24 67.2615 13.616C66.3255 12.992 65.1855 12.68 63.8415 12.68C62.5695 12.68 61.4495 12.968 60.4815 13.544C59.5135 14.112 58.7575 14.92 58.2135 15.968C57.6695 17.016 57.3975 18.248 57.3975 19.664C57.3975 20.976 57.6735 22.136 58.2255 23.144C58.7855 24.152 59.5615 24.94 60.5535 25.508C61.5455 26.076 62.6975 26.36 64.0095 26.36ZM63.9615 15.212C64.8575 15.212 65.5455 15.448 66.0255 15.92C66.5135 16.384 66.8215 17.124 66.9495 18.14H60.5655C60.9095 16.188 62.0415 15.212 63.9615 15.212ZM72.555 26H75.459V19.412C75.459 18.66 75.595 17.992 75.867 17.408C76.147 16.824 76.583 16.372 77.175 16.052C77.575 15.82 78.023 15.684 78.519 15.644C79.015 15.596 79.459 15.628 79.851 15.74V13.04C79.267 12.952 78.667 12.964 78.051 13.076C77.435 13.18 76.887 13.396 76.407 13.724C76.135 13.892 75.891 14.096 75.675 14.336C75.459 14.568 75.271 14.828 75.111 15.116V13.04H72.555V26Z" fill="#524489"/>
<circle cx="83.7803" cy="7.96942" r="3.625" transform="rotate(37.2447 83.7803 7.96942)" stroke="#2B2A31"/>
<circle cx="88.1811" cy="7.86072" r="3.625" transform="rotate(37.2447 88.1811 7.86072)" stroke="#524489"/>
</svg>
