<svg width="34" height="28" viewBox="0 0 34 28" fill="none" xmlns="http://www.w3.org/2000/svg">
<path d="M30.0166 7.4397C30.0166 7.73501 30.0166 8.03032 30.0166 8.28345C30.0166 17.0163 23.3026 27.0991 11.0644 27.0991C7.28248 27.0991 3.79801 26.0022 0.823456 24.1459C1.33338 24.1881 1.8858 24.2303 2.39572 24.2303C5.49775 24.2303 8.38731 23.1756 10.682 21.4038C7.74991 21.3616 5.28528 19.4209 4.4779 16.8053C4.90284 16.8897 5.28528 16.9319 5.75271 16.9319C6.34762 16.9319 6.94253 16.8475 7.49495 16.6788C4.43541 16.0881 2.14076 13.4303 2.14076 10.2241C2.14076 10.1819 2.14076 10.1819 2.14076 10.1397C3.03312 10.6459 4.05297 10.9413 5.1578 10.9834C3.37307 9.8022 2.18325 7.7772 2.18325 5.45688C2.18325 4.23345 2.5232 3.09438 3.07562 2.12407C6.34762 6.13188 11.2769 8.74751 16.801 9.04282C16.6736 8.57876 16.6311 8.03032 16.6311 7.52407C16.6311 3.85376 19.6056 0.900635 23.3026 0.900635C25.2148 0.900635 26.957 1.7022 28.1468 2.96782C29.6766 2.67251 31.0789 2.12407 32.3962 1.3647C31.8863 2.92563 30.8239 4.19126 29.4641 5.03501C30.8239 4.86626 32.0987 4.52876 33.2886 3.98032C32.4387 5.33032 31.3339 6.51157 30.0166 7.4397Z" fill="#5592EE"/>
</svg>
