<svg width="100" height="100" viewBox="0 0 100 100" fill="none" xmlns="http://www.w3.org/2000/svg">
<path d="M32.0093 55.8128L33.1289 53.1901C34.3559 54.095 35.951 54.5704 37.5461 54.5704C38.7117 54.5704 39.4633 54.1103 39.4633 53.4201C39.4326 51.5029 32.408 52.9907 32.3467 48.1594C32.316 45.7054 34.5093 43.8036 37.5921 43.8036C39.4326 43.8036 41.2731 44.2637 42.5768 45.2913L41.5338 47.96C40.3375 47.1931 38.8498 46.6563 37.4387 46.6563C36.4725 46.6563 35.8436 47.1164 35.8436 47.6993C35.8743 49.6011 42.9602 48.5582 43.0369 53.1747C43.0369 55.6901 40.905 57.4385 37.8682 57.4385C35.6289 57.4692 33.5737 56.9324 32.0093 55.8128ZM76.5645 52.2545C75.9817 53.2821 74.9081 53.9109 73.7424 53.9109C71.9479 53.9109 70.4909 52.4539 70.4909 50.6594C70.4909 48.8649 71.9479 47.4079 73.7424 47.4079C74.9081 47.4079 75.997 48.0367 76.5645 49.0643L79.678 47.3312C78.5124 45.2453 76.2884 43.8342 73.7424 43.8342C69.9847 43.8342 66.9326 46.8864 66.9326 50.6594C66.9326 54.4324 69.9847 57.4845 73.7424 57.4845C76.2884 57.4845 78.5124 56.0735 79.678 53.9876L76.5645 52.2545ZM45.0614 57.1931H48.9571V38.1441H45.0614V57.1931ZM81.6412 38.1441V57.1931H85.5369V51.4876L90.1535 57.1931H95.1228L89.2639 50.414L94.6934 44.0796H89.9388L85.5369 49.3404V38.1287H81.6412V38.1441ZM60.9357 44.095V45.6441C60.2915 44.5704 58.7271 43.8342 57.0706 43.8342C53.6657 43.8342 50.9663 46.8557 50.9663 50.644C50.9663 54.4324 53.6504 57.4845 57.0706 57.4845C58.7271 57.4845 60.2915 56.733 60.9357 55.6747V57.2238H64.8314V44.1103H60.9357V44.095ZM60.9357 52.2698C60.3835 53.2054 59.2025 53.8956 57.8989 53.8956C56.1044 53.8956 54.6473 52.4385 54.6473 50.644C54.6473 48.8496 56.1044 47.3925 57.8989 47.3925C59.2025 47.3925 60.3835 48.1134 60.9357 49.0796V52.2698Z" fill="#2B2A31"/>
<path d="M11.4571 37.73C10.1994 37.73 9.17179 38.7576 9.17179 40.0153C9.17179 41.273 10.1994 42.3006 11.4571 42.3006H13.7423V40.0153C13.7423 38.7576 12.7301 37.73 11.4571 37.73ZM11.4571 43.819H5.38345C4.12578 43.819 3.09818 44.8466 3.09818 46.1043C3.09818 47.3619 4.12578 48.3896 5.38345 48.3896H11.4724C12.7301 48.3896 13.7577 47.3619 13.7577 46.1043C13.7423 44.8466 12.7301 43.819 11.4571 43.819Z" fill="#36C5F0"/>
<path d="M25.9203 46.1044C25.9203 44.8468 24.8926 43.8191 23.635 43.8191C22.3773 43.8191 21.3497 44.8468 21.3497 46.1044V48.3897H23.635C24.8926 48.405 25.9203 47.3774 25.9203 46.1044ZM19.8313 46.1044V40.0001C19.8313 38.7425 18.8037 37.7148 17.546 37.7148C16.2884 37.7148 15.2607 38.7425 15.2607 40.0001V46.1044C15.2607 47.3621 16.2884 48.3897 17.546 48.3897C18.819 48.405 19.8313 47.3774 19.8313 46.1044Z" fill="#2EB67D"/>
<path d="M17.546 60.5982C18.8037 60.5982 19.8313 59.5706 19.8313 58.3129C19.8313 57.0552 18.8037 56.0276 17.546 56.0276H15.2607V58.3129C15.2607 59.5706 16.2884 60.5982 17.546 60.5982ZM17.546 54.4939H23.635C24.8926 54.4939 25.9203 53.4663 25.9203 52.2086C25.9203 50.9509 24.8926 49.9233 23.635 49.9233H17.546C16.2884 49.9233 15.2607 50.9509 15.2607 52.2086C15.2607 53.4663 16.2884 54.4939 17.546 54.4939Z" fill="#ECB22E"/>
<path d="M3.09818 52.2086C3.09818 53.4663 4.12578 54.4939 5.38345 54.4939C6.64112 54.4939 7.66873 53.4663 7.66873 52.2086V49.9233H5.38345C4.11044 49.9233 3.09818 50.9509 3.09818 52.2086ZM9.18713 52.2086V58.3129C9.18713 59.5706 10.2147 60.5982 11.4724 60.5982C12.7301 60.5982 13.7577 59.5706 13.7577 58.3129V52.2086C13.7577 50.9509 12.7301 49.9233 11.4724 49.9233C10.1994 49.9233 9.18713 50.9509 9.18713 52.2086Z" fill="#E01E5A"/>
</svg>
