<svg width="34" height="34" viewBox="0 0 34 34" fill="none" xmlns="http://www.w3.org/2000/svg">
<path d="M11.339 17C11.339 13.8935 13.8749 11.3745 17.0039 11.3745C20.1329 11.3745 22.6702 13.8935 22.6702 17C22.6702 20.1065 20.1329 22.6255 17.0039 22.6255C13.8749 22.6255 11.339 20.1065 11.339 17ZM8.27593 17C8.27593 21.7858 12.1834 25.6651 17.0039 25.6651C21.8244 25.6651 25.7319 21.7858 25.7319 17C25.7319 12.2143 21.8244 8.33489 17.0039 8.33489C12.1834 8.33489 8.27593 12.2143 8.27593 17ZM24.0377 7.99132C24.0376 8.39182 24.157 8.78338 24.381 9.11648C24.605 9.44958 24.9235 9.70926 25.2961 9.86267C25.6688 10.0161 26.0789 10.0564 26.4745 9.97837C26.8702 9.9004 27.2338 9.70768 27.5191 9.42459C27.8045 9.1415 27.9989 8.78076 28.0778 8.38798C28.1566 7.9952 28.1164 7.58802 27.9622 7.21794C27.8079 6.84786 27.5466 6.53149 27.2113 6.30885C26.876 6.08621 26.4817 5.96729 26.0782 5.96712H26.0774C25.5367 5.96738 25.0181 6.18069 24.6357 6.56022C24.2533 6.93976 24.0382 7.45447 24.0377 7.99132ZM10.1369 30.7358C8.47976 30.6609 7.57904 30.3869 6.98045 30.1553C6.18688 29.8486 5.62066 29.4833 5.02534 28.8931C4.43002 28.3029 4.06152 27.7413 3.75393 26.9534C3.52059 26.3594 3.24455 25.4649 3.16922 23.8197C3.08681 22.0409 3.07036 21.5066 3.07036 17.0001C3.07036 12.4937 3.08817 11.9609 3.16922 10.1806C3.24469 8.53537 3.52277 7.64261 3.75393 7.04685C4.06288 6.259 4.43084 5.69686 5.02534 5.10583C5.61984 4.5148 6.18552 4.14895 6.98045 3.84358C7.57876 3.61192 8.47976 3.33787 10.1369 3.26308C11.9286 3.18127 12.4668 3.16493 17.0039 3.16493C21.541 3.16493 22.0798 3.18262 23.8729 3.26308C25.5301 3.338 26.4293 3.61408 27.0294 3.84358C27.823 4.14895 28.3892 4.51561 28.9845 5.10583C29.5799 5.69605 29.947 6.259 30.2559 7.04685C30.4893 7.64085 30.7653 8.53537 30.8407 10.1806C30.9231 11.9609 30.9395 12.4937 30.9395 17.0001C30.9395 21.5066 30.9231 22.0394 30.8407 23.8197C30.7652 25.4649 30.4878 26.3591 30.2559 26.9534C29.947 27.7413 29.579 28.3034 28.9845 28.8931C28.39 29.4828 27.823 29.8486 27.0294 30.1553C26.4311 30.387 25.5301 30.6611 23.8729 30.7358C22.0813 30.8177 21.543 30.834 17.0039 30.834C12.4648 30.834 11.9281 30.8177 10.1369 30.7358ZM9.99621 0.227195C8.18673 0.309005 6.95027 0.593855 5.87045 1.011C4.75216 1.44179 3.80547 2.01973 2.85946 2.95744C1.91345 3.89514 1.33281 4.8365 0.898904 5.94674C0.478727 7.01945 0.19181 8.24633 0.109406 10.0428C0.0256428 11.8421 0.00646973 12.4173 0.00646973 17C0.00646973 21.5827 0.0256428 22.1579 0.109406 23.9572C0.19181 25.7538 0.478727 26.9806 0.898904 28.0533C1.33281 29.1628 1.91358 30.1053 2.85946 31.0426C3.80533 31.9799 4.75216 32.557 5.87045 32.989C6.95231 33.4061 8.18673 33.691 9.99621 33.7728C11.8095 33.8546 12.388 33.875 17.0039 33.875C21.6199 33.875 22.1993 33.856 24.0116 33.7728C25.8212 33.691 27.0569 33.4061 28.1374 32.989C29.255 32.557 30.2024 31.9803 31.1484 31.0426C32.0944 30.1049 32.6738 29.1628 33.1089 28.0533C33.5291 26.9806 33.8174 25.7537 33.8984 23.9572C33.9808 22.1566 34 21.5827 34 17C34 12.4173 33.9808 11.8421 33.8984 10.0428C33.816 8.2462 33.5291 7.01877 33.1089 5.94674C32.6738 4.83717 32.0929 3.89663 31.1484 2.95744C30.2039 2.01824 29.255 1.44179 28.1387 1.011C27.0569 0.593855 25.8211 0.307655 24.013 0.227195C22.2006 0.145385 21.6212 0.125 17.0053 0.125C12.3893 0.125 11.8095 0.144035 9.99621 0.227195Z" fill="#5592EE"/>
</svg>
